<?xml version="1.0" encoding="utf-8"?>
<!-- Generator: Adobe Illustrator 26.5.0, SVG Export Plug-In . SVG Version: 6.00 Build 0)  -->
<svg version="1.1" id="圖層_1" xmlns="http://www.w3.org/2000/svg" xmlns:xlink="http://www.w3.org/1999/xlink" x="0px" y="0px"
	 viewBox="0 0 986.7 229.1" style="enable-background:new 0 0 986.7 229.1;" xml:space="preserve">
<style type="text/css">
	.st0{fill:#1A1A1A;}
	.st1{fill:#FFFFFF;}
</style>
<g>
	<g>
		<path class="st0" d="M303.4,95.9h-38l-10,10h-75.2l-10-10H0v133.1h328.2V120.8C318.5,111.1,313.1,105.6,303.4,95.9z"/>
		<rect x="250.5" y="122.1" class="st1" width="58.6" height="8.7"/>
		<rect x="250.5" y="139.5" class="st1" width="58.6" height="8.7"/>
		<rect x="250.5" y="156.9" class="st1" width="58.6" height="8.7"/>
	</g>
	<g>
		<path class="st0" d="M911.7,0c-14.8,14.8-23.1,23.1-37.9,37.9v18.4c-3.9,3.9-6.1,6.1-10,10h-26l-21.5,63.7H696.8
			c-7.6,7.6-11.9,11.9-19.5,19.5v79.6h105.4h63.5h140.5V0H911.7z"/>
		<g>
			<path class="st1" d="M902.1,29.1l-2.4,28h32.7l2.4-28C934.8,29.1,902.1,29.1,902.1,29.1z M924.5,32l-1.6,19L913,32H924.5z
				 M911.6,35.7l9.6,18.6H910L911.6,35.7z"/>
			<path class="st1" d="M973,32l0.2-2.9h-22.4h-10l-2.4,28h10.1H961h10.1l1.5-16.5h-0.7h-9.3h-12.6l0.8-8.7H973z M962.2,43.6
				l-0.9,10.6h-12.6l0.9-10.6H962.2z"/>
		</g>
	</g>
</g>
<rect y="197.9" class="st1" width="986.7" height="35.7"/>
</svg>
