<?xml version="1.0" encoding="utf-8"?>
<!-- Generator: Adobe Illustrator 26.5.0, SVG Export Plug-In . SVG Version: 6.00 Build 0)  -->
<svg version="1.1" id="圖層_1" xmlns="http://www.w3.org/2000/svg" xmlns:xlink="http://www.w3.org/1999/xlink" x="0px" y="0px"
	 viewBox="0 0 986.7 164.8" style="enable-background:new 0 0 986.7 164.8;" xml:space="preserve">
<style type="text/css">
	.st0{fill:#FFFFFF;}
	.st1{fill:#3E3A39;}
	.st2{fill:#1A1A1A;}
	.st3{fill:#898989;}
</style>
<g>
	<g>
		<path class="st0" d="M986.7,165.4V17.1H791.4c-30.6,30.6-47.8,47.8-78.3,78.3l0,0l-36.6,3.3l-0.3,32.2h-65.4V98.8h-20.8
			c-6.6,6.6-10.4,10.4-17,17v41.8H355.8V98.8H253.7l-32.6-32.6h-28.5l0,0c-19.1-19.1-50.8-49-50.8-49V1.3H0v15.8v12.3v136"/>
		<path class="st1" d="M987.2,165.4h-1V17.6H791.6l-78.3,78.3l-0.2,0L677,99.2l-0.3,32.2h-66.4V99.2h-20.1L573.6,116V158H355.3V99.2
			H253.5l-32.6-32.6h-28.5l-0.1-0.1c-18.9-18.9-50.5-48.7-50.8-49l-0.2-0.1V1.8H0.5v163.6h-1V0.8h142.7v16.1
			c2.4,2.3,32.3,30.5,50.5,48.7h28.5l32.6,32.6h102.5V157h216.3v-41.5l17.3-17.3h21.5v32.2h64.4l0.3-32.1l36.8-3.3l78.4-78.4h196
			V165.4z"/>
	</g>
	<g>
		<path class="st2" d="M632.2,131.4h-16.8v-27.9c0-2.4,1.9-4.3,4.3-4.3h8.2c2.4,0,4.3,1.9,4.3,4.3V131.4z M616.4,130.4h14.8v-26.9
			c0-1.8-1.5-3.3-3.3-3.3h-8.2c-1.8,0-3.3,1.5-3.3,3.3V130.4z"/>
	</g>
	<g>
		<path class="st2" d="M652.7,131.4h-16.8v-27.9c0-2.4,1.9-4.3,4.3-4.3h8.2c2.4,0,4.3,1.9,4.3,4.3V131.4z M636.8,130.4h14.8v-26.9
			c0-1.8-1.5-3.3-3.3-3.3h-8.2c-1.8,0-3.3,1.5-3.3,3.3V130.4z"/>
	</g>
	<g>
		<path class="st2" d="M673.1,131.4h-16.8v-27.9c0-2.4,1.9-4.3,4.3-4.3h8.2c2.4,0,4.3,1.9,4.3,4.3V131.4z M657.3,130.4h14.8v-26.9
			c0-1.8-1.5-3.3-3.3-3.3h-8.2c-1.8,0-3.3,1.5-3.3,3.3V130.4z"/>
	</g>
	<g>
		<path class="st1" d="M898.6,32.2h-83.5v-9.9h83.5V32.2z M816.2,31.2h81.5v-7.9h-81.5V31.2z"/>
	</g>
	<g>
		<path class="st1" d="M987.2,32.2h-78.1v-9.9h78.1V32.2z M910.1,31.2h76.1v-7.9h-76.1V31.2z"/>
	</g>
	<g>
		<g>
			<path class="st1" d="M90.6,92.9H40.3l-9.1-9.1v-59l9.1-9.1h50.3l9.1,9.1v59L90.6,92.9z M40.7,91.9h49.5l8.6-8.6V25.1l-8.6-8.6
				H40.7l-8.6,8.6v58.1L40.7,91.9z"/>
		</g>
		<g>
			<g>
				<circle class="st0" cx="65.4" cy="54.8" r="26.8"/>
				<path class="st1" d="M65.4,82c-15,0-27.2-12.2-27.2-27.2s12.2-27.3,27.2-27.3s27.2,12.2,27.2,27.3S80.5,82,65.4,82z M65.4,28.5
					c-14.5,0-26.2,11.8-26.2,26.3S51,81,65.4,81s26.2-11.8,26.2-26.2S79.9,28.5,65.4,28.5z"/>
			</g>
			<g>
				<g>
					<rect x="50.1" y="37.4" class="st0" width="30.7" height="4.3"/>
					<path class="st1" d="M81.3,42.3H49.6v-5.3h31.7V42.3z M50.6,41.3h29.7v-3.3H50.6V41.3z"/>
				</g>
				<g>
					<rect x="50.1" y="47.5" class="st0" width="30.7" height="4.3"/>
					<path class="st1" d="M81.3,52.4H49.6V47h31.7V52.4z M50.6,51.4h29.7V48H50.6V51.4z"/>
				</g>
				<g>
					<rect x="50.1" y="57.6" class="st0" width="30.7" height="4.3"/>
					<path class="st1" d="M81.3,62.5H49.6v-5.3h31.7V62.5z M50.6,61.5h29.7v-3.3H50.6V61.5z"/>
				</g>
				<g>
					<rect x="50.1" y="67.7" class="st0" width="30.7" height="4.3"/>
					<path class="st1" d="M81.3,72.6H49.6v-5.3h31.7V72.6z M50.6,71.6h29.7v-3.3H50.6V71.6z"/>
				</g>
			</g>
		</g>
	</g>
	<g>
		<g>
			<circle class="st3" cx="13.6" cy="13" r="5"/>
		</g>
		<g>
			<circle class="st3" cx="7.5" cy="19.2" r="1.6"/>
		</g>
		<g>
			<circle class="st3" cx="19.8" cy="19.2" r="1.6"/>
		</g>
		<g>
			<circle class="st3" cx="7.5" cy="6.9" r="1.6"/>
		</g>
		<g>
			<circle class="st3" cx="19.8" cy="6.9" r="1.6"/>
		</g>
	</g>
	<g>
		<rect y="150.9" class="st0" width="986.7" height="13.9"/>
	</g>
	<g>
		<g>
			<polygon class="st2" points="287.5,165.4 286.5,165.4 286.5,136.9 184.4,136.9 184.4,165.4 183.4,165.4 183.4,135.9 287.5,135.9 
							"/>
		</g>
	</g>
</g>
</svg>
