<?xml version="1.0" encoding="utf-8"?>
<!-- Generator: Adobe Illustrator 26.5.0, SVG Export Plug-In . SVG Version: 6.00 Build 0)  -->
<svg version="1.1" id="圖層_1" xmlns="http://www.w3.org/2000/svg" xmlns:xlink="http://www.w3.org/1999/xlink" x="0px" y="0px"
	 viewBox="0 0 987.5 118.5" style="enable-background:new 0 0 987.5 118.5;" xml:space="preserve">
<style type="text/css">
	.st0{fill:#FFFFFF;stroke:#3E3A39;stroke-miterlimit:10;}
	.st1{fill:none;stroke:#3E3A39;stroke-miterlimit:10;}
	.st2{fill:none;stroke:#898989;stroke-width:7;stroke-miterlimit:10;}
	.st3{fill:none;stroke:#1A1A1A;stroke-miterlimit:10;}
	.st4{fill:#3D3939;}
	.st5{fill:none;stroke:#4E4744;stroke-miterlimit:10;}
	.st6{fill:#4E4744;}
	.st7{fill:none;stroke:#000000;}
</style>
<g>
	<rect x="211.7" y="69.8" class="st0" width="129.7" height="7.3"/>
	<polygon class="st0" points="987.5,2.8 812.8,2.8 783,29.4 680,29.4 631.9,72.5 631.9,118.5 987.5,118.5 	"/>
	<polygon class="st0" points="293.9,118.5 329.2,98.2 631.9,98.2 631.9,118.5 	"/>
	<ellipse class="st1" cx="687.9" cy="42.1" rx="8.2" ry="7.3"/>
	<polygon class="st1" points="693.1,41.7 682.9,44.9 682.1,42.7 692.3,39.5 	"/>
	<polyline class="st2" points="0.8,22.5 114.5,22.5 131.7,39.3 	"/>
	<polygon class="st0" points="192.6,118.5 192.6,101.3 211.7,84.3 211.7,58.8 151.8,58.8 112.8,24.1 0,24.1 0,118.5 	"/>
	<path class="st0" d="M393.7,98.2h-46V49.6h37.9c3.1,3.1,4.9,4.8,8.1,7.9V98.2z"/>
	<rect x="341.4" y="60.1" class="st0" width="6.3" height="27.4"/>
	<polygon class="st0" points="221.9,68.7 211.7,77.7 211.7,69.9 213.1,68.7 	"/>
	<polygon class="st0" points="239.4,68.7 228.7,78.3 219.9,78.3 230.6,68.7 	"/>
	<polygon class="st0" points="257.1,68.7 246.4,78.3 237.6,78.3 248.3,68.7 	"/>
	<polygon class="st0" points="274.7,68.7 264,78.3 255.2,78.3 265.9,68.7 	"/>
	<polygon class="st0" points="292.3,68.7 281.6,78.3 272.8,78.3 283.5,68.7 	"/>
	<polygon class="st0" points="309.9,68.7 299.2,78.3 290.4,78.3 301.1,68.7 	"/>
	<polygon class="st0" points="327.5,68.7 316.8,78.3 308,78.3 318.8,68.7 	"/>
	<polygon class="st0" points="341.4,68.7 341.4,72 334.5,78.3 325.6,78.3 336.4,68.7 	"/>
	<path class="st1" d="M171.7,112.5H78.5c-2.8,0-5-2.2-5-4.9V89.1c0-2.7,2.3-4.9,5-4.9h93.2c2.8,0,5,2.2,5,4.9v18.4
		C176.8,110.2,174.5,112.5,171.7,112.5z"/>
	<g>
		<path d="M694.1,73.9l0.9-9.7h6.1l-0.9,9.7H694.1z M694.1,73.9l0.2-1.7H714l-0.2,1.7H694.1z M695.3,65.9l-0.3-1.7h19.3l0.3,1.7
			H695.3z M695.4,59.1l0.2-1.7h19.7l-0.2,1.7H695.4z M708.5,65.9l0.8-8.6h6.1l-0.8,8.6H708.5z"/>
		<path d="M717.5,73.9l1.5-16.6h6.1l-1.5,16.6H717.5z M717.5,73.9l0.2-1.7h19.4l-0.2,1.7H717.5z M719.1,59.1l0.2-1.7h19.4l-0.2,1.7
			H719.1z M731.2,73.9l1.5-16.6h6.1l-1.5,16.6H731.2z"/>
		<path d="M740.9,73.9l0.9-9.7h6.1l-0.9,9.7H740.9z M740.9,73.9l0.2-1.7h19.8l-0.2,1.7H740.9z M742.1,65.9l-0.3-1.7h19.3l0.3,1.7
			H742.1z M742.3,59.1l0.2-1.7h19.7l-0.2,1.7H742.3z M755.4,65.9l0.8-8.6h6.1l-0.8,8.6H755.4z"/>
		<path d="M764.4,73.9l0.9-9.7h6.1l-0.9,9.7H764.4z M764.4,73.9l0.2-1.7h19.8l-0.2,1.7H764.4z M765.6,65.9l-0.3-1.7h19.3l0.3,1.7
			H765.6z M765.7,59.1l0.2-1.7h19.7l-0.2,1.7H765.7z M778.8,65.9l0.8-8.6h6.1l-0.8,8.6H778.8z"/>
		<path d="M802.1,73.9l7.3-16.6h5.2l-7.3,16.6H802.1z"/>
		<path d="M835.8,59.1l0.2-1.7h9.1l-0.2,1.7H835.8z M837.6,73.9l1.5-16.6h6.1l-1.5,16.6H837.6z"/>
		<path d="M854.3,73.9l1.5-16.6h6.1l-1.5,16.6H854.3z M854.3,73.9l0.2-1.7h19.4l-0.2,1.7H854.3z M855.8,59.1l0.2-1.7h19.4l-0.2,1.7
			H855.8z M868,73.9l1.5-16.6h6.1l-1.5,16.6H868z"/>
	</g>
	<rect x="337.2" y="106.1" class="st3" width="237.6" height="5.7"/>
	<g>
		<path class="st4" d="M797.3,83h-1.4c0,7.2,0,14.3,0,21.5h1.4C797.3,97.4,797.3,90.2,797.3,83z"/>
		<path class="st4" d="M840.6,93.7c0-3.6,0-7.1,0-10.7h-2.8c0.1,7.2,0.1,14.3,0,21.5h2.8C840.6,100.9,840.6,97.3,840.6,93.7z"/>
		<path class="st4" d="M846.1,83c0,3.5,0,6.9,0,10.4c0,3.7,0,7.4,0,11.1h2.1c0-7.2,0-14.3,0-21.5H846.1z"/>
		<path class="st4" d="M869.5,83h-2.1c0,7.2,0,14.3,0,21.5h2.1c0-3.6,0-7.2,0-10.8C869.5,90.2,869.5,86.6,869.5,83z"/>
		<path class="st4" d="M829.6,83c0,3.5,0,6.9,0,10.4c0,3.7,0,7.4,0,11.1h2.1c0-7.2,0-14.3,0-21.5L829.6,83L829.6,83z"/>
		<path class="st4" d="M835.1,83c0,3.5,0,6.9,0,10.4c0,3.7,0,7.4,0,11.1h2.1c0-7.2,0-14.3,0-21.5L835.1,83L835.1,83z"/>
		<path class="st4" d="M822.8,83h-2.1c0,7.2,0,14.3,0,21.5h2.1c0-3.6,0-7.2,0-10.8C822.7,90.2,822.7,86.6,822.8,83z"/>
		<path class="st4" d="M810.4,83h-2.1c0,7.2,0,14.3,0,21.5h2.1c0-3.6,0-7.3,0-10.9C810.4,90.1,810.4,86.6,810.4,83z"/>
		<path class="st4" d="M803.5,83c0,3.5,0,7,0,10.6c0,3.6,0,7.3,0,10.9h1.3c0-7.2,0-14.3,0-21.5H803.5z"/>
		<path class="st4" d="M816.6,93.6c0-3.5,0-7,0-10.5h-1.3c0,7.2,0,14.3,0,21.5h1.3C816.6,100.9,816.6,97.2,816.6,93.6z"/>
		<path class="st4" d="M823.4,83c0,3.4,0,6.9,0,10.4c0,3.7,0,7.4,0,11.1h1.3c0-7.2,0-14.3,0-21.5L823.4,83L823.4,83z"/>
		<path class="st4" d="M850.2,93.6c0-3.5,0-7,0-10.5h-1.3c0,7.2,0,14.3,0,21.5h1.3C850.2,100.9,850.2,97.2,850.2,93.6z"/>
		<path class="st4" d="M861.2,93.8c0-3.6,0-7.1,0-10.7h-1.3c0,7.2,0,14.3,0,21.5h1.3C861.2,100.9,861.2,97.3,861.2,93.8z"/>
		<path class="st4" d="M864,83c0,3.5,0,7,0,10.5c0,3.6,0,7.3,0,10.9h1.3c0-7.2,0-14.3,0-21.5H864z"/>
		<path class="st4" d="M841.3,83c0,3.4,0,6.9,0,10.4c0,3.7,0,7.4,0,11.1h1.3c0-7.2,0-14.3,0-21.5L841.3,83L841.3,83z"/>
		<path class="st4" d="M872.9,83h-1.3c0,3.5,0,6.9,0,10.4c0,3.7,0,7.4,0,11.1h1.3C872.9,97.4,872.9,90.2,872.9,83z"/>
		<path class="st4" d="M827.6,83c0,3.5,0,7,0,10.6c0,3.6,0,7.3,0,10.9h1.3c0-7.2,0-14.3,0-21.5L827.6,83L827.6,83z"/>
		<path class="st4" d="M798.2,83c0,7.2,0,14.3,0,21.5h0.3c0-7.2,0-14.3,0-21.5H798.2z"/>
		<path class="st4" d="M800.3,83c0,7.2,0,14.3,0,21.5h0.3c0-7.2,0-14.3,0-21.5H800.3z"/>
		<path class="st4" d="M806.5,83c0,7.2,0,14.3,0,21.5h0.3c0-7.2,0-14.3,0-21.5H806.5z"/>
		<path class="st4" d="M811.3,83c0,7.2,0,14.3,0,21.5h0.3c0-7.2,0-14.3,0-21.5H811.3z"/>
		<path class="st4" d="M814,83c0,7.2,0,14.3,0,21.5h0.3c0-7.2,0-14.3,0-21.5H814z"/>
		<path class="st4" d="M818.9,83c0,7.2,0,14.3,0,21.5h0.3c0-7.2,0-14.3,0-21.5H818.9z"/>
		<path class="st4" d="M826.3,83c0,7.2,0,14.3,0,21.5h0.3c0-7.2,0-14.3,0-21.5H826.3z"/>
		<path class="st4" d="M844.3,83c0,7.2,0,14.3,0,21.5h0.3c0-7.2,0-14.3,0-21.5H844.3z"/>
		<path class="st4" d="M833.8,83c0,7.2,0,14.3,0,21.5h0.3c0-7.2,0-14.3,0-21.5H833.8z"/>
		<path class="st4" d="M852.5,83c0,7.2,0,14.3,0,21.5h0.3c0-7.2,0-14.3,0-21.5H852.5z"/>
		<path class="st4" d="M855.1,83c0,7.2,0,14.3,0,21.5h0.3c0-7.2,0-14.3,0-21.5H855.1z"/>
		<path class="st4" d="M856.5,83c0,7.2,0,14.3,0,21.5h0.3c0-7.2,0-14.3,0-21.5H856.5z"/>
		<path class="st4" d="M862.8,83c0,7.2,0,14.3,0,21.5h0.3c0-7.2,0-14.3,0-21.5H862.8z"/>
		<path class="st4" d="M870.4,83c0,7.2,0,14.3,0,21.5h0.3c0-7.2,0-14.3,0-21.5H870.4z"/>
	</g>
	<g>
		<path class="st5" d="M769,84.2L760.3,99c1.5,2.4,1.8,3.1,3.2,5.5H781c1.5-2.4,1.8-3.1,3.2-5.5l-8.7-14.8
			C772.6,84.2,771.9,84.2,769,84.2z"/>
		<g>
			<path class="st6" d="M771.2,87h2.2v6.6l-0.5,4.5h-1.3l-0.5-4.5L771.2,87L771.2,87z M771.2,99.8h2.2v2.2h-2.2V99.8z"/>
		</g>
	</g>
	<g>
		<path d="M743.8,102.7l7.3-16.6h5.2l-7.3,16.6H743.8z"/>
		<path d="M733.1,102.7l7.3-16.6h5.2l-7.3,16.6H733.1z"/>
		<path d="M722.3,102.7l7.3-16.6h5.2l-7.3,16.6H722.3z"/>
		<path class="st7" d="M711.6,102.7l7.3-16.6h5.2l-7.3,16.6H711.6z"/>
		<path class="st7" d="M700.9,102.7l7.3-16.6h5.2l-7.3,16.6H700.9z"/>
		<path class="st7" d="M690.2,102.7l7.3-16.6h5.2l-7.3,16.6H690.2z"/>
	</g>
	<polyline class="st1" points="702.3,36.8 790.5,36.8 821.6,9.5 889.6,9.5 	"/>
	<rect x="921.1" y="2.8" width="14.2" height="5.4"/>
	<rect x="943.6" y="2.8" class="st7" width="14.2" height="5.4"/>
	<rect x="966.1" y="2.8" width="14.2" height="5.4"/>
</g>
</svg>
