<?xml version="1.0" encoding="utf-8"?>
<!-- Generator: Adobe Illustrator 26.5.0, SVG Export Plug-In . SVG Version: 6.00 Build 0)  -->
<svg version="1.1" id="圖層_1" xmlns="http://www.w3.org/2000/svg" xmlns:xlink="http://www.w3.org/1999/xlink" x="0px" y="0px"
	 viewBox="0 0 986.72 533.55" style="enable-background:new 0 0 986.72 533.55;" xml:space="preserve">
<style type="text/css">
	.st0{clip-path:url(#SVGID_00000020363414951435420760000013156906872420231095_);}
	.st1{fill:#3D3939;stroke:#FFFFFF;stroke-miterlimit:10;}
	.st2{fill:#FFFFFF;}
	.st3{fill:#3D3939;}
	.st4{fill:none;stroke:#3D3939;stroke-miterlimit:1;}
	.st5{fill:#FFFFFF;stroke:#FFFFFF;stroke-miterlimit:10;}
	.st6{fill:#FFFFFF;stroke:#3D3939;stroke-miterlimit:1;}
	.st7{fill:#3D3939;stroke:#3E3A39;stroke-miterlimit:10;}
</style>
<g>
	<defs>
		<rect id="SVGID_1_" y="90.89" width="986.72" height="442.66"/>
	</defs>
	<clipPath id="SVGID_00000019638094075244035280000012374499688812133303_">
		<use xlink:href="#SVGID_1_"  style="overflow:visible;"/>
	</clipPath>
	<g style="clip-path:url(#SVGID_00000019638094075244035280000012374499688812133303_);">
		<rect x="319.61" y="405.78" class="st1" width="107.23" height="133.28"/>
		<g>
			<polygon class="st2" points="297.75,421.8 319.92,407.23 319.92,562.86 297.75,577.44 			"/>
			<path class="st3" d="M319.42,408.16V562.6l-21.17,13.91V422.07L319.42,408.16 M320.42,406.3l-23.17,15.23v156.83l23.17-15.23
				V406.3L320.42,406.3z"/>
		</g>
		<polygon class="st3" points="93.09,534.13 32.82,534.13 32.82,305.1 63.7,305.1 93.09,412.31 		"/>
		<polygon class="st4" points="21.59,542.16 19.53,543.75 19.53,339.83 21.59,338.23 		"/>
		<polygon class="st4" points="32.82,533.59 16.85,545.98 16.85,317.5 32.82,305.1 		"/>
		<polygon class="st4" points="32.82,316.83 16.85,329.23 16.85,321.9 32.82,309.51 		"/>
		<g>
			<g>
				<rect x="705.99" y="506.94" class="st2" width="2.04" height="16.27"/>
				<path class="st3" d="M707.53,507.44v15.27h-1.04v-15.27H707.53 M708.53,506.44h-3.04v17.27h3.04V506.44L708.53,506.44z"/>
			</g>
			<g>
				<polygon class="st5" points="768.67,436.07 710.95,451.41 710.92,445.01 724.91,432.45 768.52,432.45 				"/>
				<polygon class="st5" points="616.1,468.28 575.83,483.62 575.8,477.22 594.92,464.66 615.96,464.66 				"/>
				<polygon class="st5" points="616.1,468.28 575.83,483.62 575.8,477.67 594.92,464.66 615.96,464.66 				"/>
				<polygon class="st1" points="634.43,450.85 594.16,466.19 594.13,460.24 613.25,447.23 634.29,447.23 				"/>
				<path class="st3" d="M814.89,489.8h-44.69l0.08-134.36c0-1.12,0.57-2.17,1.5-2.79c8.07-5.32,18.13-6.77,27.42-3.86l6.65,2.08
					c5.38,1.68,9.04,6.66,9.04,12.3V489.8z"/>
				<path class="st6" d="M817.7,533.55h-51.84l0.1-170.21c0-1.3,0.66-2.52,1.74-3.23c9.36-6.18,21.04-7.85,31.81-4.48l7.72,2.42
					c6.24,1.95,10.48,7.73,10.48,14.26V533.55z"/>
				<path class="st6" d="M806.83,375.58l-7.72-2.42c-9.64-3.02-20.01-1.98-28.79,2.7v10.99v6.7v140h11.92V412.57v-22.97
					c5.57-0.86,11.34-0.47,16.88,1.26l7.72,2.42c6.24,1.95,10.48,7.73,10.48,14.26v-17.69
					C817.31,383.31,813.06,377.53,806.83,375.58z"/>
				<rect x="792.54" y="407.79" class="st3" width="11.82" height="125.76"/>
				<polygon class="st6" points="613.49,537.31 594.63,549.71 594.63,460.42 613.49,448.03 				"/>
				<rect x="613.49" y="448.03" class="st7" width="35.29" height="43.89"/>
				<polygon class="st6" points="602.23,591.2 574.64,609.34 574.64,478.72 602.23,460.59 				"/>
				<rect x="602.23" y="460.59" class="st7" width="51.62" height="72.97"/>
				<polygon class="st6" points="582.74,547.74 570.97,555.48 570.97,499.73 582.74,491.99 				"/>
				<polygon class="st6" points="719.92,568.76 707.01,577.25 707.01,441.39 719.92,432.9 				"/>
				<rect x="654.39" y="471.33" class="st3" width="54.62" height="3.92"/>
				<rect x="654.39" y="476.53" class="st3" width="54.62" height="1.01"/>
				<path class="st3" d="M707.88,494.95v-3.12h-7.92l-8.05-8.82c-0.47-0.51-0.1-1.34,0.59-1.34h15.37v-2.87h-61.03v2.87h15.1
					c0.8,0,1.22,0.95,0.68,1.54l-7.86,8.62h-7.92v3.12 M659.9,491.84c-0.88,0-1.35-1.05-0.75-1.7l6.85-7.51
					c0.55-0.6,1.32-0.94,2.14-0.94h18.45c0.81,0,1.59,0.34,2.14,0.94l6.85,7.51c0.6,0.65,0.13,1.7-0.75,1.7"/>
				<rect x="582.3" y="491.99" class="st3" width="6.72" height="64.21"/>
				<path class="st3" d="M690.32,476.53h-1.24c-0.31,0-0.55-0.25-0.55-0.55v-5.96c0-0.31,0.25-0.55,0.55-0.55h1.24
					c0.31,0,0.55,0.25,0.55,0.55v5.96C690.87,476.28,690.63,476.53,690.32,476.53z"/>
				<path class="st3" d="M708.92,487.9v-1.58h-3.82v1.58c-1.31,0.69-2.21,2.05-2.21,3.63v13.09c0,1.58,0.9,2.94,2.21,3.63v1.69h3.82
					v-1.69c1.31-0.69,2.21-2.05,2.21-3.63v-13.09C711.13,489.94,710.23,488.59,708.92,487.9z"/>
				<g>
					<path class="st2" d="M705.99,486.7v-30.51c0-0.75,0.61-1.36,1.36-1.36h2.45c0.55,0,0.99,0.45,0.99,0.99s-0.45,0.99-0.99,0.99
						h-0.92c-0.47,0-0.85,0.38-0.85,0.85v29.03H705.99z"/>
					<path class="st3" d="M709.8,455.33c0.27,0,0.49,0.22,0.49,0.49s-0.22,0.49-0.49,0.49h-0.92c-0.75,0-1.35,0.61-1.35,1.35v28.53
						h-1.04v-30.01c0-0.47,0.39-0.86,0.86-0.86h0.31h0.87H709.8 M709.8,454.33h-1.27h-0.87h-0.31c-1.03,0-1.86,0.83-1.86,1.86v31.01
						h3.04v-29.53c0-0.19,0.16-0.35,0.35-0.35h0.92c0.82,0,1.49-0.67,1.49-1.49S710.62,454.33,709.8,454.33L709.8,454.33z"/>
				</g>
				<g>
					<rect x="703.86" y="491.93" class="st2" width="0.66" height="12.94"/>
				</g>
				<rect x="783.89" y="307.54" class="st3" width="2.07" height="46.46"/>
				<path class="st3" d="M787.08,350.4h-1.49v-9.77h0.46c0.41,0.41,0.63,0.63,1.04,1.04V350.4z"/>
				<rect x="782.36" y="345.13" class="st3" width="3.23" height="7.6"/>
			</g>
			<rect x="720.06" y="433.12" class="st7" width="47.42" height="102.84"/>
		</g>
	</g>
</g>
</svg>
