<?xml version="1.0" encoding="utf-8"?>
<!-- Generator: Adobe Illustrator 26.5.0, SVG Export Plug-In . SVG Version: 6.00 Build 0)  -->
<svg version="1.1" id="圖層_1" xmlns="http://www.w3.org/2000/svg" xmlns:xlink="http://www.w3.org/1999/xlink" x="0px" y="0px"
	 viewBox="0 0 986.7 533.5" style="enable-background:new 0 0 986.7 533.5;" xml:space="preserve">
<style type="text/css">
	.st0{clip-path:url(#SVGID_00000019680061823832524880000009134532971730437788_);}
	.st1{fill:#3D3939;stroke:#FFFFFF;stroke-miterlimit:1;}
	.st2{fill:#3D3939;}
	.st3{fill:#FFFFFF;}
	.st4{fill:none;stroke:#3D3939;stroke-miterlimit:10;}
	.st5{fill:none;stroke:#3D3939;stroke-miterlimit:1;}
	.st6{fill:#FFFFFF;stroke:#3D3939;stroke-miterlimit:1;}
	.st7{fill:none;stroke:#3D3939;stroke-width:4;stroke-miterlimit:10;}
	.st8{fill:#3D3939;stroke:#3D3939;stroke-miterlimit:10;}
	.st9{fill:none;stroke:#3D3939;stroke-linejoin:bevel;stroke-miterlimit:1;}
</style>
<g>
	<g>
		<defs>
			<rect id="SVGID_1_" y="90.9" width="986.7" height="442.7"/>
		</defs>
		<clipPath id="SVGID_00000096780076638055284450000012846728809446043540_">
			<use xlink:href="#SVGID_1_"  style="overflow:visible;"/>
		</clipPath>
		<g style="clip-path:url(#SVGID_00000096780076638055284450000012846728809446043540_);">
			<rect x="301.5" y="489.2" class="st1" width="242.6" height="4.3"/>
			<rect x="301.5" y="489.2" class="st1" width="242.6" height="4.3"/>
			<path class="st1" d="M549.3,462.3H301.5v20.9h139.9v1.3h27.4v-1.3h27.4v1.3h27.4v-1.3h6.9c3,0,5.4,2.4,5.4,5.4v44.7h23v-61.5
				C558.8,466.6,554.6,462.3,549.3,462.3z"/>
			<g>
				<path class="st2" d="M278.5,454v184.1l-31.4,24.4V478.4L278.5,454 M279.5,452l-33.4,25.9v186.6l33.4-25.9V452L279.5,452z"/>
			</g>
			<g>
				<polygon class="st2" points="251.3,444.1 249.2,444.1 250.1,282.4 251.3,282.3 				"/>
				<rect x="258.2" y="270.1" class="st2" width="1" height="173.9"/>
				<rect x="250.2" y="293.6" class="st2" width="8.8" height="1"/>
				<polygon class="st2" points="258.1,305.9 250,294.8 250.3,294 258.5,305.1 				"/>
				<rect x="249.5" y="305.3" class="st2" width="9.5" height="1"/>
				<polygon class="st2" points="258.1,317.7 250,306.5 250.3,305.7 258.5,316.8 				"/>
				<rect x="249.5" y="317.1" class="st2" width="9.5" height="1"/>
				<polygon class="st2" points="258.1,329.4 250,318.3 250.3,317.5 258.5,328.6 				"/>
				<rect x="249.5" y="328.8" class="st2" width="9.5" height="1"/>
				<polygon class="st2" points="258.1,341.2 250,330 250.3,329.2 258.5,340.3 				"/>
				<rect x="249.5" y="340.6" class="st2" width="9.5" height="1"/>
				<polygon class="st2" points="258.1,352.9 250,341.8 250.3,340.9 258.5,352.1 				"/>
				<rect x="249.5" y="352.3" class="st2" width="9.5" height="1"/>
				<polygon class="st2" points="258.1,364.6 250,353.5 250.3,352.7 258.5,363.8 				"/>
				<rect x="249.5" y="364" class="st2" width="9.5" height="1"/>
				<polygon class="st2" points="258.1,376.4 250,365.3 250.3,364.4 258.5,375.5 				"/>
				<rect x="249.5" y="375.8" class="st2" width="9.5" height="1"/>
				<polygon class="st2" points="258.1,388.1 250,377 250.3,376.2 258.5,387.3 				"/>
				<rect x="249.5" y="387.5" class="st2" width="9.5" height="1"/>
				<polygon class="st2" points="258.1,399.9 250,388.8 250.3,387.9 258.5,399 				"/>
				<rect x="249.5" y="399.3" class="st2" width="9.5" height="1"/>
				<polygon class="st2" points="258.1,411.6 250,400.5 250.3,399.7 258.5,410.8 				"/>
				<rect x="249.5" y="411" class="st2" width="9.5" height="1"/>
				<polygon class="st2" points="258.1,423.4 250,412.2 250.3,411.4 258.5,422.5 				"/>
				<g>
					<polygon class="st3" points="246.6,299.2 249.6,295.1 249.6,438.5 246.6,442.6 					"/>
					<path class="st2" d="M249.1,296.6v141.7l-2,2.7V299.3L249.1,296.6 M250.1,293.6l-4,5.4v145.1l4-5.4V293.6L250.1,293.6z"/>
				</g>
				
					<ellipse transform="matrix(0.9967 -8.149783e-02 8.149783e-02 0.9967 -25.057 22.2496)" class="st2" cx="260" cy="318.1" rx="5.7" ry="18.3"/>
				
					<ellipse transform="matrix(0.9915 -0.1302 0.1302 0.9915 -45.877 36.9058)" class="st2" cx="259.3" cy="369.3" rx="5.9" ry="13.6"/>
				
					<ellipse transform="matrix(0.1129 -0.9936 0.9936 0.1129 -117.8508 547.0204)" class="st2" cx="247.4" cy="339.5" rx="18" ry="6.2"/>
				<path class="st2" d="M260.4,272.1H257c-0.7-0.7-1.2-1.2-1.9-1.9v-20.5c0.7-0.7,1.2-1.2,1.9-1.9h3.5c0.7,0.7,1.2,1.2,1.9,1.9
					v20.5C261.6,271,261.2,271.4,260.4,272.1z"/>
				<path class="st2" d="M249.9,291.2h-1.4c-0.7-0.7-1.2-1.2-1.9-1.9v-20.5c0.7-0.7,1.2-1.2,1.9-1.9h1.4c0.7,0.7,1.2,1.2,1.9,1.9
					v20.5C251,290.1,250.6,290.5,249.9,291.2z"/>
				<line class="st4" x1="250.2" y1="393.9" x2="228.6" y2="424.5"/>
				<line class="st4" x1="246.7" y1="391.7" x2="212.7" y2="437.1"/>
				<line class="st4" x1="258.7" y1="394.6" x2="316.8" y2="463.9"/>
				<line class="st4" x1="259" y1="399.3" x2="288.5" y2="462.3"/>
				<g>
					<polygon class="st3" points="59.3,458 90.2,437.7 90.2,587.7 59.3,608.1 					"/>
					<path class="st2" d="M89.7,438.6v148.9l-29.9,19.7V458.3L89.7,438.6 M90.7,436.7l-32,21V609l32-21V436.7L90.7,436.7z"/>
				</g>
				<g>
					<polygon class="st3" points="197.2,445.8 228.2,425.5 228.2,575.5 197.2,595.9 					"/>
					<path class="st2" d="M227.7,426.4v148.9l-29.9,19.7V446.1L227.7,426.4 M228.7,424.5l-31.9,21v151.2l31.9-21V424.5L228.7,424.5z
						"/>
				</g>
				<polygon class="st2" points="154.3,388.9 144.3,388.9 144.3,448.6 145.2,448.6 145.2,497.1 148.8,497.1 148.8,448.6 149,448.6 
					149,410.8 151.1,410.8 151.1,448.6 152.3,448.6 152.5,449.8 162.2,445.7 				"/>
				<rect x="178" y="419.4" class="st2" width="3.7" height="1"/>
				<rect x="178" y="407.4" class="st2" width="3.7" height="1"/>
				<rect x="178" y="395.4" class="st2" width="3.7" height="1"/>
				<rect x="178" y="385.5" class="st4" width="3.7" height="44.9"/>
				
					<rect x="173.1" y="436.2" transform="matrix(9.809771e-02 -0.9952 0.9952 9.809771e-02 -268.5027 577.9102)" class="st2" width="22.9" height="1.7"/>
				
					<rect x="212.4" y="425.6" transform="matrix(0.9952 -9.809771e-02 9.809771e-02 0.9952 -41.8464 23.0341)" class="st2" width="1.7" height="22.9"/>
				<rect x="184.6" y="431.6" class="st2" width="28.1" height="1"/>
				<path class="st2" d="M186.2,426.2l9.3,2.5c2.1,0.6,4.2,0.6,6.3,0l9.9-2.6"/>
				<path class="st2" d="M208,376.5c-0.7,0-1.3,0.6-1.3,1.3v3.2h1.1v-2.8c0-0.3,0.3-0.6,0.6-0.6h12.3c0.3,0,0.6,0.3,0.6,0.6V448h1.1
					v-70.4c0-0.5-0.4-1-1-1L208,376.5L208,376.5z"/>
				<path class="st4" d="M216.2,397.2l-0.5-0.2c-11.1-3.2-22.9-3.2-33.9,0.2l0,0"/>
				<path class="st4" d="M216,408.7l-0.5-0.2c-11.1-3.2-22.9-3.2-33.9,0.2l0,0"/>
				<path class="st4" d="M216.2,386.4v35.3c0,2.5-2,4.5-4.5,4.5h-25.5c-2.5,0-4.5-2-4.5-4.5v-35.3c0-1.8,1.1-3.4,2.8-3.9
					c1.2-0.4,2.4-0.7,3.6-1c3.6-0.9,7.2-1.3,10.8-1.3c3.5,0,7.1,0.4,10.5,1.2c1.3,0.3,2.6,0.7,3.9,1.1c0.8,0.3,1.6,0.8,2,1.5
					C215.9,384.7,216.2,385.5,216.2,386.4z"/>
				<path class="st2" d="M209.5,380.4v1.1c-3.5-0.8-7-1.2-10.5-1.2c-3.6,0-7.2,0.4-10.8,1.3v-1.1c0-1,0.8-1.8,1.8-1.8h17.7
					C208.6,378.5,209.5,379.4,209.5,380.4z"/>
				<polygon class="st2" points="144.5,394.6 139,400.7 140.5,404.7 144.5,406.6 142.6,412.7 141.4,416 141.7,418.5 142.4,420.4 
					143.1,420.4 143.4,423 143,424.5 138.6,424.5 138.6,427.8 144,428.7 144,429.5 143.9,431.7 143.9,432 146.4,432 146.1,394.6 
									"/>
				<path class="st4" d="M142.5,403.2c0,0-28.9,27.4-49.4,26.5"/>
				<path class="st4" d="M145.9,405.1c0,0-18.4,43.4-40.2,39"/>
				<path class="st4" d="M149.1,405.6c0,0-10.6,44.3-26.1,41"/>
				<path class="st4" d="M139.9,426.2c0,0-22.9,15.7-38.7,10.8"/>
				<rect x="146.4" y="312.1" class="st2" width="2.7" height="86.5"/>
				<polygon class="st2" points="228.6,424.5 228.6,436.7 90.7,436.7 90.7,511.1 274.2,511.1 274.2,424.5 				"/>
				<rect x="145.1" y="304.5" class="st2" width="5.2" height="13.5"/>
			</g>
			<g>
				<path class="st5" d="M863.1,335.2c4.5-5.2-9.4,23.7-35,36.9"/>
				<rect x="840.9" y="375.5" class="st6" width="145.8" height="158.2"/>
				<polygon class="st6" points="840.9,584.3 801.1,615.1 801.1,393 840.9,362.2 				"/>
				<polygon class="st6" points="835.4,578.3 806.4,600.8 806.4,438.6 835.4,416.1 				"/>
				<rect x="835.4" y="416.1" class="st6" width="94.8" height="105.8"/>
				<line class="st5" x1="840.9" y1="382.6" x2="801.1" y2="413.4"/>
				<g>
					<line class="st7" x1="873.6" y1="180.2" x2="873.6" y2="365"/>
					<line class="st7" x1="888.6" y1="248.2" x2="888.6" y2="365"/>
					<ellipse class="st2" cx="864.3" cy="287.5" rx="11.6" ry="17.8"/>
					<ellipse class="st2" cx="875.9" cy="311.3" rx="9.8" ry="12.8"/>
					<rect x="859.1" y="328" class="st2" width="14.5" height="4.2"/>
					<rect x="863.1" y="328" class="st2" width="10.5" height="36.9"/>
					<rect x="868.6" y="324.8" class="st2" width="16" height="43.4"/>
					<path class="st2" d="M873.6,286.1h-5v-46.1c2-2,3.1-3.1,5-5.1l0,0V286.1z"/>
					<path class="st4" d="M884,333.5c0,0,10.6,30.3,41,31.5"/>
					<path class="st4" d="M884.7,339.7c0,0,11,29.1,28.2,26.8"/>
					<path class="st4" d="M884,340.5c0,0,4.1,27.1,16.3,29.3"/>
				</g>
				<rect x="840.9" y="362.2" class="st8" width="172" height="20.4"/>
				<polygon class="st5" points="947.8,509.6 943.4,513 943.4,421.2 947.8,417.8 				"/>
				<g>
					<path class="st2" d="M915.4,330.1v35.7l-37.8,15.4v-21.8L915.4,330.1 M916.4,328l-39.8,30.8v23.7l39.8-16.2V328L916.4,328z"/>
				</g>
				<rect x="916.3" y="328" class="st2" width="70.4" height="36.9"/>
				<g>
					<rect x="947.8" y="417.4" class="st2" width="15.4" height="104.6"/>
				</g>
				<polygon class="st2" points="934.1,306.6 928,306.6 928,321.1 929.5,321.1 929.5,330.5 932.5,330.5 932.5,321.1 934.1,321.1 
									"/>
				<path class="st6" d="M930.2,478.9h-65.7c-5-5-7.9-7.9-12.9-12.9v-19.7c5-5,7.9-7.9,12.9-12.9h65.7V478.9z"/>
				<path class="st6" d="M930.2,478.9h-65.7c-5-5-7.9-7.9-12.9-12.9v-19.7c5-5,7.9-7.9,12.9-12.9h65.7V478.9z"/>
				<polygon class="st2" points="930.2,471.8 879.1,471.8 874.9,468.1 874.9,468.1 930.2,468.1 				"/>
				<line class="st9" x1="880.3" y1="474.3" x2="930.2" y2="474.3"/>
				<g>
					<g>
						<path class="st2" d="M886.3,444.6l-1.3,15h17.5l1.3-15H886.3z M898.2,446.2l-0.9,10.2l-5.3-10.2H898.2z M891.3,448.1l5.1,9.9
							h-6L891.3,448.1z"/>
					</g>
					<g>
						<path class="st2" d="M924.1,446.2l0.1-1.5h-12h-5.4l-1.3,15h5.4h6.7h5.4l0.8-8.8h-0.4h-5h-6.7l0.4-4.6L924.1,446.2
							L924.1,446.2z M918.4,452.4l-0.5,5.7h-6.7l0.5-5.7H918.4z"/>
					</g>
				</g>
				<path class="st5" d="M866.1,330.5c0,0-0.2,27.1-23.7,33.9"/>
			</g>
			<g>
				<rect x="279.5" y="451.8" class="st2" width="29.1" height="85.1"/>
			</g>
			<g>
				<rect x="308.6" y="469" class="st3" width="204.3" height="1.9"/>
				<rect x="529.2" y="469" class="st3" width="14.8" height="1.9"/>
			</g>
		</g>
	</g>
</g>
<rect y="510.7" class="st2" width="986.7" height="22.9"/>
</svg>
