<?xml version="1.0" encoding="utf-8"?>
<!-- Generator: Adobe Illustrator 26.5.0, SVG Export Plug-In . SVG Version: 6.00 Build 0)  -->
<svg version="1.1" id="圖層_1" xmlns="http://www.w3.org/2000/svg" xmlns:xlink="http://www.w3.org/1999/xlink" x="0px" y="0px"
	 viewBox="0 0 986.49 273.33" style="enable-background:new 0 0 986.49 273.33;" xml:space="preserve">
<style type="text/css">
	.st0{clip-path:url(#SVGID_00000125562278104074847350000006295620957470590118_);}
	.st1{fill:#3D3939;}
	.st2{fill:#3D3939;stroke:#FFFFFF;stroke-miterlimit:10;}
	.st3{fill:none;stroke:#FFFFFF;stroke-miterlimit:10;}
	.st4{fill:none;stroke:#FFFFFF;stroke-width:3;stroke-miterlimit:10;}
	.st5{fill:#3C3939;}
</style>
<g>
	<defs>
		<rect id="SVGID_1_" x="0" y="24.03" width="986.84" height="251.48"/>
	</defs>
	<clipPath id="SVGID_00000160877416907948403110000006299717852340694925_">
		<use xlink:href="#SVGID_1_"  style="overflow:visible;"/>
	</clipPath>
	<g style="clip-path:url(#SVGID_00000160877416907948403110000006299717852340694925_);">
		<polygon class="st1" points="808.55,207.47 604.87,207.47 588.65,185.23 824.76,185.23 		"/>
		<rect x="860.63" y="141.43" class="st1" width="8.51" height="84.43"/>
		<polygon class="st1" points="378.13,223.25 0,223.25 0,159.84 432.15,159.84 		"/>
		<g>
			<rect x="0" y="24.03" class="st1" width="986.72" height="174.72"/>
			<rect x="346.93" y="35.26" class="st2" width="139.15" height="5.13"/>
			<path class="st2" d="M483.87,11.41l-55.19,36.29c-1.69,1.11-3.85,1.72-6.08,1.72h-76.85v7.2h80.45c2.24,0,4.4-0.61,6.09-1.72
				l57.83-38.04L483.87,11.41z"/>
			<rect x="528.21" y="24.03" class="st2" width="12.34" height="26.17"/>
			<path class="st2" d="M526.52,52.78h-5.47c-0.93,0-1.69-0.76-1.69-1.69V36.95c0-0.93,0.76-1.69,1.69-1.69h5.47
				c0.93,0,1.69,0.76,1.69,1.69v14.14C528.21,52.03,527.45,52.78,526.52,52.78z"/>
			<rect x="-2.18" y="43.02" class="st3" width="346.94" height="22.65"/>
			<rect x="581.49" y="22.71" class="st2" width="75.7" height="76.66"/>
			<rect x="801.16" y="22.71" class="st2" width="54.71" height="76.66"/>
			<rect x="855.87" y="22.71" class="st2" width="133.65" height="76.66"/>
			<rect x="-12.56" y="159.84" class="st2" width="1021.02" height="12.53"/>
			<path class="st4" d="M-12.56,141.26c78.31-1.62,502.93-0.43,581.19,2.25c26.16,0.9,52.33,2.04,78.29,4.62
				c31.9,3.17,63.35,8.5,95.15,12.2c87.15,10.14,175.88,7.92,264,5.68"/>
			<rect x="-12.56" y="147.64" class="st2" width="1021.02" height="2.86"/>
			<polygon class="st2" points="-3.4,180.81 -9.95,177.7 63.22,135.86 69.76,138.97 			"/>
			<polygon class="st2" points="133.43,180.81 139.98,177.7 66.81,135.86 60.27,138.97 			"/>
			<polygon class="st2" points="136.18,180.81 129.64,177.7 202.8,135.86 209.34,138.97 			"/>
			<polygon class="st2" points="273.02,180.81 279.56,177.7 206.39,135.86 199.85,138.97 			"/>
			<polygon class="st2" points="275.76,180.81 269.22,177.7 342.38,135.86 348.92,138.97 			"/>
			<polygon class="st2" points="412.6,180.81 419.14,177.7 345.97,135.86 339.43,138.97 			"/>
			<polygon class="st2" points="415.34,180.81 408.8,177.7 481.96,135.86 488.5,138.97 			"/>
			<polygon class="st2" points="552.18,180.81 558.72,177.7 485.55,135.86 479.01,138.97 			"/>
			<polygon class="st2" points="554.92,180.81 548.38,177.7 621.54,135.86 628.09,138.97 			"/>
			<polygon class="st2" points="691.76,180.81 698.3,177.7 625.13,135.86 618.59,138.97 			"/>
			<polygon class="st2" points="694.5,180.81 687.96,177.7 761.12,135.86 767.67,138.97 			"/>
			<polygon class="st2" points="831.34,180.81 837.88,177.7 764.71,135.86 758.17,138.97 			"/>
			<polygon class="st2" points="834.08,180.81 827.54,177.7 900.71,135.86 907.25,138.97 			"/>
			<polygon class="st2" points="970.92,180.81 977.46,177.7 904.29,135.86 897.75,138.97 			"/>
			<polygon class="st2" points="973.66,180.81 967.12,177.7 1040.29,135.86 1046.83,138.97 			"/>
			<rect x="-2.18" y="87.67" class="st3" width="343.49" height="6.8"/>
			<rect x="334.93" y="23.36" class="st2" width="19.67" height="74.85"/>
			<path class="st2" d="M557.48,36.34V20.37h-22.11v36.59c0,4.81,5.14,8.71,11.49,8.71h567.28V41.86H564.76
				C560.74,41.86,557.48,39.39,557.48,36.34z"/>
			<rect x="-2.18" y="75.63" class="st2" width="988.89" height="5.03"/>
			<rect x="321.91" y="72.92" class="st2" width="7.15" height="10.45"/>
			<path class="st3" d="M353.33,67.12c43.98,7.14,89.45,6.11,134.42,5.28c176.35-3.24,352.82-2.8,529.14,1.3"/>
			<rect x="635.97" y="39.81" class="st2" width="12.51" height="27.31"/>
			<rect x="-12.56" y="132.54" class="st2" width="1021.02" height="7.99"/>
			<rect x="-12.56" y="175.66" class="st2" width="1021.02" height="7.99"/>
			<rect x="479.01" y="157.03" class="st2" width="6.05" height="18.63"/>
			<rect x="485.31" y="159.84" class="st2" width="8.62" height="12.53"/>
			<rect x="470.39" y="159.84" class="st2" width="8.62" height="12.53"/>
			<line class="st4" x1="-4.73" y1="49.04" x2="234.25" y2="49.04"/>
			<line class="st4" x1="246.16" y1="49.04" x2="288.04" y2="49.04"/>
			<line class="st4" x1="661.31" y1="49.04" x2="900.29" y2="49.04"/>
			<line class="st4" x1="912.2" y1="44.38" x2="954.08" y2="44.38"/>
			<line class="st4" x1="587.36" y1="49.04" x2="629.24" y2="49.04"/>
			<rect x="584.57" y="97.31" class="st2" width="8.17" height="90.83"/>
			<rect x="646.53" y="97.31" class="st2" width="8.17" height="90.83"/>
			<path class="st2" d="M515.55,56.63h-37.19c-2.84,0-5.15-2.31-5.15-5.15V40.41c0-2.84,2.31-5.15,5.15-5.15h37.19
				c2.84,0,5.15,2.31,5.15,5.15v11.07C520.7,54.33,518.39,56.63,515.55,56.63z"/>
			<path class="st2" d="M522.8,39.62h-37.15c-2.33,0-4.21-1.89-4.21-4.21V32.8c0-2.33,1.89-4.21,4.21-4.21h37.15
				c2.33,0,4.21,1.89,4.21,4.21v2.61C527.02,37.73,525.13,39.62,522.8,39.62z"/>
		</g>
		<rect x="924.29" y="191.08" class="st1" width="8.51" height="84.43"/>
	</g>
</g>
<rect x="-0.11" y="-2.18" class="st5" width="986.72" height="28.56"/>
</svg>
