<?xml version="1.0" encoding="utf-8"?>
<!-- Generator: Adobe Illustrator 26.5.0, SVG Export Plug-In . SVG Version: 6.00 Build 0)  -->
<svg version="1.1" id="圖層_1" xmlns="http://www.w3.org/2000/svg" xmlns:xlink="http://www.w3.org/1999/xlink" x="0px" y="0px"
	 viewBox="0 0 92.83 90.89" style="enable-background:new 0 0 92.83 90.89;" xml:space="preserve">
<style type="text/css">
	.st0{fill:#FFFFFF;}
</style>
<path class="st0" d="M42.95,2.15c2.39,0,4.78,0,7.17,0c0.38,0.09,0.77,0.22,1.16,0.26C68.83,4.32,83.5,16.78,88.13,33.83
	c0.7,2.59,1.06,5.27,1.58,7.9c0,2.39,0,4.78,0,7.17c-0.09,0.47-0.23,0.94-0.28,1.41c-2.02,17.91-15.31,32.88-32.88,37
	c-0.98,0.23-1.97,0.39-3.08,0.61c-0.06-0.58-0.13-0.96-0.13-1.34c-0.01-9.07,0.01-18.15-0.02-27.22c0-1.08,0.33-1.51,1.43-1.48
	c2.35,0.06,4.69-0.04,7.04,0.03c1.2,0.04,1.74-0.35,1.9-1.59c0.4-3.16,0.92-6.3,1.4-9.45c0.25-1.66,0.23-1.69-1.5-1.69
	c-3.01-0.01-6.02-0.02-9.03,0c-0.8,0-1.24-0.21-1.23-1.12c0.04-2.43-0.07-4.87,0.04-7.3c0.18-3.84,2.57-6.09,6.41-6.17
	c1.55-0.03,3.1-0.05,4.65,0c0.99,0.03,1.44-0.26,1.41-1.35c-0.06-2.74-0.05-5.49,0-8.23c0.02-0.95-0.33-1.34-1.28-1.42
	c-2.16-0.18-4.31-0.49-6.47-0.64c-3.08-0.21-6.11,0.08-9.01,1.19c-5.72,2.2-9.26,7.68-9.34,14.47c-0.04,3.05-0.05,6.11,0.01,9.16
	c0.02,1.12-0.4,1.46-1.47,1.44c-2.7-0.05-5.4,0.02-8.1-0.03c-1.02-0.02-1.42,0.35-1.41,1.39c0.04,3.32,0.04,6.64,0,9.96
	c-0.01,1.05,0.41,1.4,1.42,1.38c2.61-0.04,5.23,0.05,7.84-0.03c1.33-0.04,1.74,0.38,1.74,1.73c-0.06,8.9-0.03,17.8-0.03,26.69
	c0,0.47-0.05,0.94-0.09,1.59c-0.74-0.12-1.34-0.19-1.93-0.31C16.1,83.09,1.39,63.03,3.58,41.07C5.49,21.96,19.55,6.55,38.38,2.93
	C39.89,2.64,41.42,2.41,42.95,2.15z"/>
</svg>
