<?xml version="1.0" encoding="utf-8"?>
<!-- Generator: Adobe Illustrator 26.5.0, SVG Export Plug-In . SVG Version: 6.00 Build 0)  -->
<svg version="1.1" id="圖層_1" xmlns="http://www.w3.org/2000/svg" xmlns:xlink="http://www.w3.org/1999/xlink" x="0px" y="0px"
	 viewBox="0 0 92.83 90.89" style="enable-background:new 0 0 92.83 90.89;" xml:space="preserve">
<style type="text/css">
	.st0{fill:#FFFFFF;}
</style>
<g>
	<path class="st0" d="M46.74,4.23c5.61,0,11.22-0.07,16.83,0.01c14.21,0.2,23.67,9.2,24.05,23.4c0.32,11.81,0.35,23.65-0.01,35.46
		c-0.27,9.13-3.77,16.98-12.58,20.95c-3.62,1.63-7.88,2.44-11.88,2.54c-11.21,0.29-22.44,0.13-33.66-0.08
		c-8.74-0.16-16.6-2.73-20.89-11.01c-1.92-3.7-3.24-8.12-3.38-12.26C4.8,51.25,4.97,39.21,5.2,27.19
		c0.27-13.4,9.65-22.6,23.21-22.97c6.11-0.17,12.22-0.03,18.33-0.03C46.74,4.21,46.74,4.22,46.74,4.23z M79.81,43.5
		c0.01,0,0.02,0,0.03,0c0-5.31,0.14-10.62-0.03-15.92c-0.3-9.24-5.44-15.12-14.59-15.43c-12.8-0.43-25.63-0.36-38.43,0.04
		c-7.83,0.25-13.45,5.85-13.71,13.75c-0.43,12.8-0.58,25.65-0.02,38.44c0.37,8.42,4.69,13.85,13.31,14.31
		c12.78,0.69,25.63,0.39,38.44,0.1c8.93-0.21,14.54-5.92,14.94-14.85C80.06,57.13,79.81,50.31,79.81,43.5z"/>
	<path class="st0" d="M67.74,45.35c0.07,11.83-9.47,21.5-21.23,21.5c-11.8,0.01-21.56-9.59-21.61-21.24
		C24.85,34.05,34.81,23.96,46.24,24C58.08,24.04,67.67,33.57,67.74,45.35z M32.79,45.08c-0.05,7.93,5.73,13.92,13.42,13.9
		c7.81-0.02,13.61-5.61,13.73-13.25c0.12-7.85-5.66-13.87-13.39-13.93C38.98,31.75,32.84,37.67,32.79,45.08z"/>
	<path class="st0" d="M73.55,23.32c0,2.77-2.15,4.92-4.94,4.97c-2.96,0.06-5.21-2.14-5.14-5.03c0.07-2.93,2.03-4.77,5.03-4.74
		C71.43,18.56,73.56,20.57,73.55,23.32z"/>
</g>
</svg>
