<?xml version="1.0" encoding="utf-8"?>
<!-- Generator: Adobe Illustrator 26.5.0, SVG Export Plug-In . SVG Version: 6.00 Build 0)  -->
<svg version="1.1" id="圖層_1" xmlns="http://www.w3.org/2000/svg" xmlns:xlink="http://www.w3.org/1999/xlink" x="0px" y="0px"
	 viewBox="0 0 617.82 256.42" style="enable-background:new 0 0 617.82 256.42;" xml:space="preserve">
<style type="text/css">
	.st0{fill:none;stroke:#000000;stroke-miterlimit:10;}
	.st1{fill:#3E3A39;}
</style>
<polygon class="st0" points="601.18,95.34 601.18,201.56 613.43,201.56 613.43,252.82 589.61,252.82 568.5,228.96 306.54,228.96 
	280.49,244.45 266.41,252.82 4.37,252.82 4.37,3.6 535.32,3.6 613.43,58.89 613.43,95.34 "/>
<g>
	<polyline class="st0" points="451.84,184.03 451.84,194.63 460.01,194.63 	"/>
	<polyline class="st0" points="571.84,144.58 580.01,144.58 580.01,155.18 	"/>
	<polyline class="st0" points="580.01,184.03 580.01,194.63 571.84,194.63 	"/>
	<polyline class="st0" points="451.84,155.18 451.84,144.58 460.01,144.58 	"/>
</g>
<rect x="312.83" y="234.24" class="st1" width="4.33" height="10.21"/>
<rect x="324.53" y="234.24" class="st1" width="4.33" height="10.21"/>
<rect x="336.23" y="234.24" class="st1" width="4.33" height="10.21"/>
<rect x="347.93" y="234.24" class="st1" width="4.33" height="10.21"/>
<rect x="359.63" y="234.24" class="st1" width="4.33" height="10.21"/>
<rect x="371.33" y="234.24" class="st1" width="4.33" height="10.21"/>
<rect x="382.46" y="234.24" class="st1" width="4.33" height="10.21"/>
<rect x="393.58" y="234.24" class="st1" width="4.33" height="10.21"/>
<polygon class="st0" points="582.2,244.45 568.5,228.96 306.54,228.96 280.49,244.45 406.62,244.45 406.62,234.24 412.75,234.24 
	412.75,244.45 "/>
<polyline class="st0" points="4.37,238.53 253.5,238.22 293.63,214.36 613.43,214.36 "/>
</svg>
