<?xml version="1.0" encoding="utf-8"?>
<!-- Generator: Adobe Illustrator 26.5.0, SVG Export Plug-In . SVG Version: 6.00 Build 0)  -->
<svg version="1.1" id="圖層_1" xmlns="http://www.w3.org/2000/svg" xmlns:xlink="http://www.w3.org/1999/xlink" x="0px" y="0px"
	 viewBox="0 0 154.6 41.98" style="enable-background:new 0 0 154.6 41.98;" xml:space="preserve">
<style type="text/css">
	.st0{fill:#FFFFFF;stroke:#8E8E8E;stroke-miterlimit:10;}
	.st1{fill:none;stroke:#8E8E8E;stroke-miterlimit:10;}
</style>
<g>
	<path class="st0" d="M132.18,34.3v2.85c0,1.29-1.03,2.31-2.31,2.31H93.53c3.47-0.16,6.85-0.38,10.13-0.67
		C114.48,37.86,124.21,36.3,132.18,34.3z"/>
	<path class="st0" d="M40.28,4.27c-15.95,2.6-27.8,6.72-32.51,11.58c0,0.01-0.01,0.01-0.01,0.01L4.51,2.94l23.51-2.27L40.28,4.27z"
		/>
	<path class="st0" d="M39.49,36.66l-11.47,3.37L4.51,37.76l3.18-12.63c0.02,0.02,0.05,0.06,0.07,0.08h0.01
		C12.39,29.99,23.94,34.06,39.49,36.66z"/>
	<path class="st0" d="M154.6,20.5v0.04H80.08V1.3c34.9,0,64.2,6.19,72.3,14.55c0,0.01,0.01,0.01,0.01,0.01
		c0.97,1,1.64,2.04,1.96,3.11C154.52,19.47,154.6,19.98,154.6,20.5z"/>
	<path class="st0" d="M154.6,20.5v0.04H80.08V4.82c2.04-0.07,4.09-0.1,6.12-0.1c22.58,0,45.04,3.7,66.18,11.42
		c0,0.01,0.01,0.01,0.01,0.01c0.97,0.94,1.64,1.91,1.96,2.91c0.19,0.36,0.23,0.74,0.24,1.09C154.6,20.27,154.6,20.39,154.6,20.5z"/>
	<path class="st0" d="M154.6,20.5v0.03H80.08v-8.52c2.04-0.04,4.09-0.05,6.12-0.05c22.58,0,45.05,2.01,66.19,6.2
		c1.15,0.23,1.71,0.65,1.96,1.1c0.19,0.31,0.23,0.64,0.24,0.95C154.6,20.3,154.6,20.41,154.6,20.5z"/>
	<path class="st0" d="M80.07,1.3v38.47c-14.97,0-28.91-1.14-40.58-3.1c-15.55-2.61-27.1-6.68-31.72-11.46H7.76
		c-0.03-0.02-0.06-0.06-0.07-0.08c-0.94-0.99-1.58-1.99-1.89-3.03c-0.17-0.5-0.25-1.02-0.25-1.53V20.5c0-0.52,0.08-1.03,0.25-1.53
		c0.32-1.07,0.99-2.11,1.96-3.11c0,0,0.01,0,0.01-0.01C12.48,11,24.33,6.88,40.28,4.27C51.78,2.39,65.43,1.3,80.07,1.3z"/>
	<path class="st0" d="M5.55,20.5v0.04h74.53V4.82c-2.04-0.07-4.09-0.1-6.12-0.1c-22.58,0-45.04,3.7-66.18,11.42
		c0,0.01-0.01,0.01-0.01,0.01c-0.97,0.94-1.64,1.91-1.96,2.91c-0.19,0.36-0.23,0.74-0.24,1.09C5.55,20.27,5.55,20.39,5.55,20.5z"/>
	<path class="st0" d="M5.55,20.5v0.03h74.53v-8.52c-2.04-0.04-4.09-0.05-6.12-0.05c-22.58,0-45.05,2.01-66.19,6.2
		c-1.15,0.23-1.71,0.65-1.96,1.1c-0.2,0.31-0.24,0.64-0.25,0.94C5.55,20.3,5.55,20.41,5.55,20.5z"/>
	<path class="st0" d="M154.6,20.54v0.04c0,0.51-0.08,1.02-0.25,1.53c-0.32,1.06-0.99,2.1-1.96,3.11h-0.01
		c-2.41,2.48-6.7,4.78-12.46,6.78c-1.52,0.53-3.14,1.04-4.86,1.53c-0.93,0.26-1.89,0.52-2.88,0.77c-7.97,2-17.7,3.56-28.52,4.49
		c-3.28,0.29-6.66,0.51-10.13,0.67c-1.73,0.08-3.49,0.15-5.27,0.2c-2.69,0.07-5.42,0.11-8.19,0.11V20.54H154.6z"/>
	<path class="st0" d="M154.6,20.57v-0.04H80.08v15.71c2.04,0.07,4.09,0.1,6.12,0.1c22.58,0,45.04-3.7,66.18-11.42
		c0-0.01,0.01-0.01,0.01-0.01c0.97-0.94,1.64-1.91,1.96-2.91c0.19-0.36,0.23-0.74,0.24-1.09C154.6,20.8,154.6,20.68,154.6,20.57z"/>
	<path class="st0" d="M154.6,20.57v-0.03H80.08v8.52c2.04,0.04,4.09,0.05,6.12,0.05c22.58,0,45.05-2.01,66.19-6.2
		c1.15-0.23,1.71-0.65,1.96-1.1c0.19-0.31,0.23-0.64,0.24-0.95C154.6,20.76,154.6,20.66,154.6,20.57z"/>
	<path class="st0" d="M5.55,20.57v-0.04h74.53v15.71c-2.04,0.07-4.09,0.1-6.12,0.1c-22.58,0-45.04-3.7-66.18-11.42
		c0-0.01-0.01-0.01-0.01-0.01C6.79,23.97,6.12,23,5.8,22c-0.19-0.36-0.23-0.74-0.24-1.09C5.55,20.8,5.55,20.68,5.55,20.57z"/>
	<path class="st0" d="M5.55,20.57v-0.03h74.53v8.52c-2.04,0.04-4.09,0.05-6.12,0.05c-22.58,0-45.05-2.01-66.19-6.2
		c-1.15-0.23-1.71-0.65-1.96-1.1c-0.19-0.31-0.23-0.64-0.24-0.95C5.55,20.76,5.55,20.66,5.55,20.57z"/>
	<path class="st1" d="M113.51,3.34l1.29,3.53c3.3,9.01,3.31,18.33,0.02,27.34l-1.31,3.59"/>
	<path class="st1" d="M46.64,3.34l-1.29,3.53c-3.3,9.01-3.31,18.33-0.02,27.34l1.31,3.59"/>
	<g>
		<path class="st0" d="M88.25,41.31h-11.7c-0.93,0-1.69-0.76-1.69-1.69l0,0c0-0.93,0.76-1.69,1.69-1.69h11.7
			c0.93,0,1.69,0.76,1.69,1.69l0,0C89.94,40.55,89.19,41.31,88.25,41.31z"/>
		<line class="st1" x1="87.75" y1="37.93" x2="87.75" y2="41.31"/>
		<line class="st1" x1="77.29" y1="37.93" x2="77.29" y2="41.31"/>
	</g>
</g>
</svg>
